# xmcd
# Track frame offsets:
# 150
# 17540
# 35103
# 52477
# 53895
#
# Disc length: 737 seconds
# Revision: 0
# Processed by: cddbd v1.5.1PL0 Copyright (c) Steve Scherf et al.
# Submitted via: VisiTrax 2.9.10.228 - For more info visit www.synapsa.com
#
DISCID=4402df05
DTITLE=S5 - Ooh That A**
DYEAR=2005
DGENRE=R&B
TTITLE0=Ooh That A** (Radio Mix)
TTITLE1=Ooh That A** (Instumental)
TTITLE2=Ooh That Azz (Radio Mix)
TTITLE3=Call Out Hook #1
TTITLE4=Call Out Hook #2
EXTD=J Records, a unit of  BMG\n\nwww.s3online.com\nPromo
EXTT0=
EXTT1=
EXTT2=
EXTT3=
EXTT4=
PLAYORDER=
